M48
INCH,TZ
T1C0.031
T2C0.035
T3C0.039
%
G90
G05
T1
X40354Y-42307
X40354Y-43307
X40354Y-44307
X43307Y-42307
X43307Y-43307
X43307Y-44307
X46260Y-42307
X46260Y-43307
X46260Y-44307
X48228Y-50197
X48228Y-55197
T2
X32465Y-23622
X32465Y-26575
X32465Y-29528
X32465Y-32480
X32465Y-35433
X32465Y-38386
X33465Y-23622
X33465Y-26575
X33465Y-29528
X33465Y-32480
X33465Y-35433
X33465Y-38386
X35433Y-23622
X35433Y-26575
X35433Y-29528
X35433Y-32480
X35433Y-35433
X35433Y-38386
X36433Y-23622
X36433Y-26575
X36433Y-29528
X36433Y-32480
X36433Y-35433
X36433Y-38386
X46260Y-47244
X48228Y-46260
X48228Y-48228
T3
X23327Y-42224
X23327Y-53248
X24327Y-42224
X24327Y-53248
X25327Y-42224
X25327Y-53248
X26327Y-42224
X26327Y-53248
X27327Y-42224
X27327Y-53248
X28327Y-42224
X28327Y-53248
X29327Y-42224
X29327Y-53248
X30327Y-42224
X30327Y-53248
X31327Y-42224
X31327Y-53248
X32327Y-42224
X32327Y-53248
X33327Y-42224
X33327Y-53248
X34327Y-42224
X34327Y-53248
X35327Y-42224
X35327Y-53248
X36327Y-42224
X36327Y-53248
X37327Y-42224
X37327Y-53248
T0
M30
