G04 #@! TF.FileFunction,Paste,Top*
%FSLAX46Y46*%
G04 Gerber Fmt 4.6, Leading zero omitted, Abs format (unit mm)*
G04 Created by KiCad (PCBNEW 4.0.6+dfsg1-1) date Mon May 21 22:22:56 2018*
%MOMM*%
%LPD*%
G01*
G04 APERTURE LIST*
%ADD10C,0.100000*%
%ADD11C,0.250000*%
G04 APERTURE END LIST*
D10*
D11*
X118226189Y-52928571D02*
X118226189Y-51428571D01*
X118559523Y-52500000D01*
X118892856Y-51428571D01*
X118892856Y-52928571D01*
X119797618Y-52928571D02*
X119797618Y-52142857D01*
X119749999Y-52000000D01*
X119654761Y-51928571D01*
X119464284Y-51928571D01*
X119369046Y-52000000D01*
X119797618Y-52857143D02*
X119702380Y-52928571D01*
X119464284Y-52928571D01*
X119369046Y-52857143D01*
X119321427Y-52714286D01*
X119321427Y-52571429D01*
X119369046Y-52428571D01*
X119464284Y-52357143D01*
X119702380Y-52357143D01*
X119797618Y-52285714D01*
X120702380Y-52928571D02*
X120702380Y-51428571D01*
X120702380Y-52857143D02*
X120607142Y-52928571D01*
X120416665Y-52928571D01*
X120321427Y-52857143D01*
X120273808Y-52785714D01*
X120226189Y-52642857D01*
X120226189Y-52214286D01*
X120273808Y-52071429D01*
X120321427Y-52000000D01*
X120416665Y-51928571D01*
X120607142Y-51928571D01*
X120702380Y-52000000D01*
X121559523Y-52857143D02*
X121464285Y-52928571D01*
X121273808Y-52928571D01*
X121178570Y-52857143D01*
X121130951Y-52714286D01*
X121130951Y-52142857D01*
X121178570Y-52000000D01*
X121273808Y-51928571D01*
X121464285Y-51928571D01*
X121559523Y-52000000D01*
X121607142Y-52142857D01*
X121607142Y-52285714D01*
X121130951Y-52428571D01*
X122797618Y-52928571D02*
X122797618Y-51428571D01*
X122797618Y-52000000D02*
X122892856Y-51928571D01*
X123083333Y-51928571D01*
X123178571Y-52000000D01*
X123226190Y-52071429D01*
X123273809Y-52214286D01*
X123273809Y-52642857D01*
X123226190Y-52785714D01*
X123178571Y-52857143D01*
X123083333Y-52928571D01*
X122892856Y-52928571D01*
X122797618Y-52857143D01*
X123607142Y-51928571D02*
X123845237Y-52928571D01*
X124083333Y-51928571D02*
X123845237Y-52928571D01*
X123749999Y-53285714D01*
X123702380Y-53357143D01*
X123607142Y-53428571D01*
X110083330Y-55428571D02*
X110083330Y-53928571D01*
X110464283Y-53928571D01*
X110559521Y-54000000D01*
X110607140Y-54071429D01*
X110654759Y-54214286D01*
X110654759Y-54428571D01*
X110607140Y-54571429D01*
X110559521Y-54642857D01*
X110464283Y-54714286D01*
X110083330Y-54714286D01*
X111083330Y-55428571D02*
X111083330Y-54428571D01*
X111083330Y-53928571D02*
X111035711Y-54000000D01*
X111083330Y-54071429D01*
X111130949Y-54000000D01*
X111083330Y-53928571D01*
X111083330Y-54071429D01*
X111940473Y-55357143D02*
X111845235Y-55428571D01*
X111654758Y-55428571D01*
X111559520Y-55357143D01*
X111511901Y-55214286D01*
X111511901Y-54642857D01*
X111559520Y-54500000D01*
X111654758Y-54428571D01*
X111845235Y-54428571D01*
X111940473Y-54500000D01*
X111988092Y-54642857D01*
X111988092Y-54785714D01*
X111511901Y-54928571D01*
X112273806Y-54428571D02*
X112654758Y-54428571D01*
X112416663Y-53928571D02*
X112416663Y-55214286D01*
X112464282Y-55357143D01*
X112559520Y-55428571D01*
X112654758Y-55428571D01*
X113369045Y-55357143D02*
X113273807Y-55428571D01*
X113083330Y-55428571D01*
X112988092Y-55357143D01*
X112940473Y-55214286D01*
X112940473Y-54642857D01*
X112988092Y-54500000D01*
X113083330Y-54428571D01*
X113273807Y-54428571D01*
X113369045Y-54500000D01*
X113416664Y-54642857D01*
X113416664Y-54785714D01*
X112940473Y-54928571D01*
X113845235Y-55428571D02*
X113845235Y-54428571D01*
X113845235Y-54714286D02*
X113892854Y-54571429D01*
X113940473Y-54500000D01*
X114035711Y-54428571D01*
X114130950Y-54428571D01*
X115083331Y-53928571D02*
X115416664Y-55428571D01*
X115749998Y-53928571D01*
X116511903Y-55428571D02*
X116511903Y-54642857D01*
X116464284Y-54500000D01*
X116369046Y-54428571D01*
X116178569Y-54428571D01*
X116083331Y-54500000D01*
X116511903Y-55357143D02*
X116416665Y-55428571D01*
X116178569Y-55428571D01*
X116083331Y-55357143D01*
X116035712Y-55214286D01*
X116035712Y-55071429D01*
X116083331Y-54928571D01*
X116178569Y-54857143D01*
X116416665Y-54857143D01*
X116511903Y-54785714D01*
X116988093Y-54428571D02*
X116988093Y-55428571D01*
X116988093Y-54571429D02*
X117035712Y-54500000D01*
X117130950Y-54428571D01*
X117273808Y-54428571D01*
X117369046Y-54500000D01*
X117416665Y-54642857D01*
X117416665Y-55428571D01*
X118321427Y-55428571D02*
X118321427Y-53928571D01*
X118321427Y-55357143D02*
X118226189Y-55428571D01*
X118035712Y-55428571D01*
X117940474Y-55357143D01*
X117892855Y-55285714D01*
X117845236Y-55142857D01*
X117845236Y-54714286D01*
X117892855Y-54571429D01*
X117940474Y-54500000D01*
X118035712Y-54428571D01*
X118226189Y-54428571D01*
X118321427Y-54500000D01*
X119178570Y-55357143D02*
X119083332Y-55428571D01*
X118892855Y-55428571D01*
X118797617Y-55357143D01*
X118749998Y-55214286D01*
X118749998Y-54642857D01*
X118797617Y-54500000D01*
X118892855Y-54428571D01*
X119083332Y-54428571D01*
X119178570Y-54500000D01*
X119226189Y-54642857D01*
X119226189Y-54785714D01*
X118749998Y-54928571D01*
X119654760Y-55428571D02*
X119654760Y-54428571D01*
X119654760Y-54714286D02*
X119702379Y-54571429D01*
X119749998Y-54500000D01*
X119845236Y-54428571D01*
X119940475Y-54428571D01*
X120892856Y-53928571D02*
X121226189Y-55428571D01*
X121559523Y-53928571D01*
X122273809Y-55357143D02*
X122178571Y-55428571D01*
X121988094Y-55428571D01*
X121892856Y-55357143D01*
X121845237Y-55214286D01*
X121845237Y-54642857D01*
X121892856Y-54500000D01*
X121988094Y-54428571D01*
X122178571Y-54428571D01*
X122273809Y-54500000D01*
X122321428Y-54642857D01*
X122321428Y-54785714D01*
X121845237Y-54928571D01*
X122749999Y-54428571D02*
X122749999Y-55428571D01*
X122749999Y-54571429D02*
X122797618Y-54500000D01*
X122892856Y-54428571D01*
X123035714Y-54428571D01*
X123130952Y-54500000D01*
X123178571Y-54642857D01*
X123178571Y-55428571D01*
X123654761Y-54428571D02*
X123654761Y-55428571D01*
X123654761Y-54571429D02*
X123702380Y-54500000D01*
X123797618Y-54428571D01*
X123940476Y-54428571D01*
X124035714Y-54500000D01*
X124083333Y-54642857D01*
X124083333Y-55428571D01*
X124940476Y-55357143D02*
X124845238Y-55428571D01*
X124654761Y-55428571D01*
X124559523Y-55357143D01*
X124511904Y-55214286D01*
X124511904Y-54642857D01*
X124559523Y-54500000D01*
X124654761Y-54428571D01*
X124845238Y-54428571D01*
X124940476Y-54500000D01*
X124988095Y-54642857D01*
X124988095Y-54785714D01*
X124511904Y-54928571D01*
X125273809Y-54428571D02*
X125654761Y-54428571D01*
X125416666Y-53928571D02*
X125416666Y-55214286D01*
X125464285Y-55357143D01*
X125559523Y-55428571D01*
X125654761Y-55428571D01*
M02*
