G04 #@! TF.FileFunction,Copper,L2,Bot,Signal*
%FSLAX46Y46*%
G04 Gerber Fmt 4.6, Leading zero omitted, Abs format (unit mm)*
G04 Created by KiCad (PCBNEW 4.0.6+dfsg1-1) date Mon May 21 22:22:56 2018*
%MOMM*%
%LPD*%
G01*
G04 APERTURE LIST*
%ADD10C,0.100000*%
%ADD11C,1.524000*%
%ADD12R,1.524000X1.524000*%
%ADD13C,1.600000*%
%ADD14O,1.600000X1.600000*%
%ADD15C,1.620000*%
%ADD16R,1.800000X1.800000*%
%ADD17C,1.800000*%
%ADD18R,1.700000X1.700000*%
%ADD19O,1.700000X1.700000*%
%ADD20C,0.250000*%
G04 APERTURE END LIST*
D10*
D11*
X117500000Y-110000000D03*
X117500000Y-107460000D03*
D12*
X117500000Y-112540000D03*
D11*
X102500000Y-110000000D03*
X102500000Y-107460000D03*
D12*
X102500000Y-112540000D03*
D11*
X110000000Y-110000000D03*
X110000000Y-107460000D03*
D12*
X110000000Y-112540000D03*
D13*
X122500000Y-127500000D03*
D14*
X122500000Y-140200000D03*
D15*
X122500000Y-122500000D03*
X117500000Y-120000000D03*
X122500000Y-117500000D03*
D16*
X85000000Y-97500000D03*
D17*
X82460000Y-97500000D03*
D16*
X85000000Y-90000000D03*
D17*
X82460000Y-90000000D03*
D16*
X85000000Y-82500000D03*
D17*
X82460000Y-82500000D03*
D16*
X85000000Y-75000000D03*
D17*
X82460000Y-75000000D03*
D16*
X85000000Y-67500000D03*
D17*
X82460000Y-67500000D03*
D16*
X85000000Y-60000000D03*
D17*
X82460000Y-60000000D03*
D16*
X90000000Y-97500000D03*
D17*
X92540000Y-97500000D03*
D16*
X90000000Y-90000000D03*
D17*
X92540000Y-90000000D03*
D16*
X90000000Y-82500000D03*
D17*
X92540000Y-82500000D03*
D16*
X90000000Y-75000000D03*
D17*
X92540000Y-75000000D03*
D16*
X90000000Y-67500000D03*
D17*
X92540000Y-67500000D03*
D16*
X90000000Y-60000000D03*
D17*
X92540000Y-60000000D03*
D18*
X94810000Y-107250000D03*
D19*
X92270000Y-107250000D03*
X89730000Y-107250000D03*
X87190000Y-107250000D03*
X84650000Y-107250000D03*
X82110000Y-107250000D03*
X79570000Y-107250000D03*
X77030000Y-107250000D03*
X74490000Y-107250000D03*
X71950000Y-107250000D03*
X69410000Y-107250000D03*
X66870000Y-107250000D03*
X64330000Y-107250000D03*
X61790000Y-107250000D03*
X59250000Y-107250000D03*
D18*
X59250000Y-135250000D03*
D19*
X61790000Y-135250000D03*
X64330000Y-135250000D03*
X66870000Y-135250000D03*
X69410000Y-135250000D03*
X71950000Y-135250000D03*
X74490000Y-135250000D03*
X77030000Y-135250000D03*
X79570000Y-135250000D03*
X82110000Y-135250000D03*
X84650000Y-135250000D03*
X87190000Y-135250000D03*
X89730000Y-135250000D03*
X92270000Y-135250000D03*
X94810000Y-135250000D03*
D20*
X85000000Y-97500000D02*
X86150000Y-97500000D01*
X86150000Y-97500000D02*
X90000000Y-97500000D01*
X85000000Y-90000000D02*
X90000000Y-90000000D01*
X84730000Y-102230000D02*
X83685001Y-101185001D01*
X83685001Y-101185001D02*
X83685001Y-98725001D01*
X84730000Y-102250000D02*
X84730000Y-102230000D01*
X84730000Y-102250000D02*
X89730000Y-107250000D01*
X83685001Y-98725001D02*
X83685001Y-83725001D01*
X83685001Y-83725001D02*
X82460000Y-82500000D01*
X82460000Y-67500000D02*
X82460000Y-68772792D01*
X82460000Y-68772792D02*
X83685001Y-69997793D01*
X83685001Y-69997793D02*
X83685001Y-98725001D01*
X83685001Y-98725001D02*
X82460000Y-97500000D01*
X87190000Y-107250000D02*
X86340001Y-106400001D01*
X86340001Y-106400001D02*
X86340001Y-106340001D01*
X86340001Y-106340001D02*
X80000000Y-100000000D01*
X80000000Y-92500000D02*
X80000000Y-100000000D01*
X80000000Y-62500000D02*
X80000000Y-77500000D01*
X80000000Y-77500000D02*
X80000000Y-92500000D01*
X82460000Y-75000000D02*
X80000000Y-77460000D01*
X80000000Y-77460000D02*
X80000000Y-77500000D01*
X82460000Y-90000000D02*
X81560001Y-90899999D01*
X81560001Y-90899999D02*
X81560001Y-90939999D01*
X81560001Y-90939999D02*
X80000000Y-92500000D01*
X81560001Y-60939999D02*
X80000000Y-62500000D01*
X82460000Y-60000000D02*
X81560001Y-60899999D01*
X81560001Y-60899999D02*
X81560001Y-60939999D01*
X91314999Y-98750000D02*
X91314999Y-102250000D01*
X91314999Y-102250000D02*
X91314999Y-102435001D01*
X91250000Y-105027919D02*
X91250000Y-102314999D01*
X91250000Y-102314999D02*
X91314999Y-102250000D01*
X92270000Y-107250000D02*
X92270000Y-106047919D01*
X92270000Y-106047919D02*
X91250000Y-105027919D01*
X91314999Y-68725001D02*
X91314999Y-83750000D01*
X91314999Y-83750000D02*
X91314999Y-98500000D01*
X91640001Y-83399999D02*
X91640001Y-83424998D01*
X92540000Y-82500000D02*
X91640001Y-83399999D01*
X91640001Y-83424998D02*
X91314999Y-83750000D01*
X91314999Y-98500000D02*
X91314999Y-98750000D01*
X92540000Y-97500000D02*
X91640001Y-98399999D01*
X91640001Y-98399999D02*
X91640001Y-98424998D01*
X91640001Y-98424998D02*
X91314999Y-98750000D01*
X91415000Y-98399999D02*
X91314999Y-98500000D01*
X92540000Y-67500000D02*
X91314999Y-68725001D01*
X95000000Y-92250000D02*
X95000000Y-106000000D01*
X94960000Y-106000000D02*
X94810000Y-106150000D01*
X94810000Y-106150000D02*
X94810000Y-107250000D01*
X95000000Y-106000000D02*
X94960000Y-106000000D01*
X95000000Y-92250000D02*
X95000000Y-92460000D01*
X95000000Y-77460000D02*
X95000000Y-92250000D01*
X95000000Y-92460000D02*
X92540000Y-90000000D01*
X92540000Y-60000000D02*
X93439999Y-60899999D01*
X93439999Y-60899999D02*
X93439999Y-60939999D01*
X93439999Y-60939999D02*
X95000000Y-62500000D01*
X95000000Y-62500000D02*
X95000000Y-77460000D01*
X95000000Y-77460000D02*
X92540000Y-75000000D01*
X90000000Y-82500000D02*
X88850000Y-82500000D01*
X88850000Y-82500000D02*
X85000000Y-82500000D01*
X90000000Y-75000000D02*
X85000000Y-75000000D01*
X101448000Y-112500000D02*
X82280000Y-112500000D01*
X82280000Y-112500000D02*
X77030000Y-107250000D01*
X102500000Y-112540000D02*
X101488000Y-112540000D01*
X101488000Y-112540000D02*
X101448000Y-112500000D01*
X74490000Y-107250000D02*
X75339999Y-108099999D01*
X75339999Y-108099999D02*
X75599999Y-108099999D01*
X81127001Y-113627001D02*
X109924999Y-113627001D01*
X75599999Y-108099999D02*
X81127001Y-113627001D01*
X109924999Y-113627001D02*
X110000000Y-113552000D01*
X110000000Y-113552000D02*
X110000000Y-112540000D01*
X116302000Y-114750000D02*
X79450000Y-114750000D01*
X79450000Y-114750000D02*
X71950000Y-107250000D01*
X117500000Y-112540000D02*
X117500000Y-113552000D01*
X117500000Y-113552000D02*
X116302000Y-114750000D01*
X117500000Y-107460000D02*
X122500000Y-112460000D01*
X122500000Y-112460000D02*
X122500000Y-117500000D01*
X110000000Y-107460000D02*
X117500000Y-107460000D01*
X102500000Y-107460000D02*
X110000000Y-107460000D01*
X122500000Y-127500000D02*
X122500000Y-125000000D01*
X122500000Y-125000000D02*
X117500000Y-120000000D01*
M02*
