G04 #@! TF.FileFunction,Soldermask,Top*
%FSLAX46Y46*%
G04 Gerber Fmt 4.6, Leading zero omitted, Abs format (unit mm)*
G04 Created by KiCad (PCBNEW 4.0.6+dfsg1-1) date Mon May 21 22:22:56 2018*
%MOMM*%
%LPD*%
G01*
G04 APERTURE LIST*
%ADD10C,0.100000*%
%ADD11C,1.924000*%
%ADD12R,1.924000X1.924000*%
%ADD13C,2.000000*%
%ADD14O,2.000000X2.000000*%
%ADD15C,2.020000*%
%ADD16C,2.400000*%
%ADD17R,2.200000X2.200000*%
%ADD18C,2.200000*%
%ADD19R,2.100000X2.100000*%
%ADD20O,2.100000X2.100000*%
G04 APERTURE END LIST*
D10*
D11*
X117500000Y-110000000D03*
X117500000Y-107460000D03*
D12*
X117500000Y-112540000D03*
D11*
X102500000Y-110000000D03*
X102500000Y-107460000D03*
D12*
X102500000Y-112540000D03*
D11*
X110000000Y-110000000D03*
X110000000Y-107460000D03*
D12*
X110000000Y-112540000D03*
D13*
X122500000Y-127500000D03*
D14*
X122500000Y-140200000D03*
D15*
X122500000Y-122500000D03*
X117500000Y-120000000D03*
X122500000Y-117500000D03*
D16*
X120000000Y-120000000D03*
D17*
X85000000Y-97500000D03*
D18*
X82460000Y-97500000D03*
D17*
X85000000Y-90000000D03*
D18*
X82460000Y-90000000D03*
D17*
X85000000Y-82500000D03*
D18*
X82460000Y-82500000D03*
D17*
X85000000Y-75000000D03*
D18*
X82460000Y-75000000D03*
D17*
X85000000Y-67500000D03*
D18*
X82460000Y-67500000D03*
D17*
X85000000Y-60000000D03*
D18*
X82460000Y-60000000D03*
D17*
X90000000Y-97500000D03*
D18*
X92540000Y-97500000D03*
D17*
X90000000Y-90000000D03*
D18*
X92540000Y-90000000D03*
D17*
X90000000Y-82500000D03*
D18*
X92540000Y-82500000D03*
D17*
X90000000Y-75000000D03*
D18*
X92540000Y-75000000D03*
D17*
X90000000Y-67500000D03*
D18*
X92540000Y-67500000D03*
D17*
X90000000Y-60000000D03*
D18*
X92540000Y-60000000D03*
D19*
X94810000Y-107250000D03*
D20*
X92270000Y-107250000D03*
X89730000Y-107250000D03*
X87190000Y-107250000D03*
X84650000Y-107250000D03*
X82110000Y-107250000D03*
X79570000Y-107250000D03*
X77030000Y-107250000D03*
X74490000Y-107250000D03*
X71950000Y-107250000D03*
X69410000Y-107250000D03*
X66870000Y-107250000D03*
X64330000Y-107250000D03*
X61790000Y-107250000D03*
X59250000Y-107250000D03*
D19*
X59250000Y-135250000D03*
D20*
X61790000Y-135250000D03*
X64330000Y-135250000D03*
X66870000Y-135250000D03*
X69410000Y-135250000D03*
X71950000Y-135250000D03*
X74490000Y-135250000D03*
X77030000Y-135250000D03*
X79570000Y-135250000D03*
X82110000Y-135250000D03*
X84650000Y-135250000D03*
X87190000Y-135250000D03*
X89730000Y-135250000D03*
X92270000Y-135250000D03*
X94810000Y-135250000D03*
M02*
