G04 #@! TF.FileFunction,Profile,NP*
%FSLAX46Y46*%
G04 Gerber Fmt 4.6, Leading zero omitted, Abs format (unit mm)*
G04 Created by KiCad (PCBNEW 4.0.6+dfsg1-1) date Mon May 21 22:22:56 2018*
%MOMM*%
%LPD*%
G01*
G04 APERTURE LIST*
%ADD10C,0.100000*%
%ADD11C,0.150000*%
G04 APERTURE END LIST*
D10*
D11*
X137500000Y-70000000D02*
X133750000Y-66250000D01*
X133750000Y-66250000D02*
X133000000Y-67000000D01*
X137500000Y-84750000D02*
X132500000Y-82250000D01*
X137500000Y-85750000D02*
X132500000Y-83250000D01*
X132500000Y-99500000D02*
X137500000Y-99500000D01*
X132500000Y-83250000D02*
X132500000Y-82250000D01*
X132500000Y-100500000D02*
X132500000Y-99500000D01*
X133000000Y-67000000D02*
X137500000Y-71500000D01*
X137500000Y-100500000D02*
X132500000Y-100500000D01*
X52500000Y-150000000D02*
X57000000Y-150000000D01*
X118000000Y-150000000D02*
X122500000Y-150000000D01*
X147500000Y-70000000D02*
X147500000Y-52500000D01*
X147500000Y-84750000D02*
X147500000Y-71500000D01*
X147500000Y-99500000D02*
X147500000Y-85750000D01*
X140000000Y-150000000D02*
X145000000Y-150000000D01*
X130000000Y-150000000D02*
X135000000Y-150000000D01*
X140000000Y-50000000D02*
X145000000Y-50000000D01*
X130000000Y-50000000D02*
X135000000Y-50000000D01*
X143000000Y-67000000D02*
X147500000Y-71500000D01*
X143750000Y-66250000D02*
X143000000Y-67000000D01*
X147500000Y-70000000D02*
X143750000Y-66250000D01*
X147500000Y-85750000D02*
X142500000Y-83250000D01*
X147500000Y-84750000D02*
X142500000Y-82250000D01*
X142500000Y-83250000D02*
X142500000Y-82250000D01*
X137500000Y-52500000D02*
X137500000Y-60000000D01*
X137500000Y-147500000D02*
X137500000Y-140000000D01*
X137500000Y-62500000D02*
X137500000Y-137500000D01*
X127500000Y-62500000D02*
X127500000Y-137500000D01*
X127500000Y-52500000D02*
X127500000Y-60000000D01*
X127500000Y-147500000D02*
X127500000Y-140000000D01*
X147500000Y-100500000D02*
X142500000Y-100500000D01*
X142500000Y-99500000D02*
X147500000Y-99500000D01*
X142500000Y-100500000D02*
X142500000Y-99500000D01*
X117000000Y-145000000D02*
X118000000Y-145000000D01*
X117000000Y-150000000D02*
X117000000Y-145000000D01*
X118000000Y-145000000D02*
X118000000Y-150000000D01*
X58000000Y-145000000D02*
X58000000Y-150000000D01*
X57000000Y-145000000D02*
X58000000Y-145000000D01*
X57000000Y-150000000D02*
X57000000Y-145000000D01*
X130000000Y-50000000D02*
G75*
G03X127500000Y-52500000I0J-2500000D01*
G01*
X127500000Y-55000000D02*
G75*
G03X122500000Y-50000000I-5000000J0D01*
G01*
X137500000Y-52500000D02*
G75*
G03X135000000Y-50000000I-2500000J0D01*
G01*
X140000000Y-50000000D02*
G75*
G03X137500000Y-52500000I0J-2500000D01*
G01*
X147500000Y-52500000D02*
G75*
G03X145000000Y-50000000I-2500000J0D01*
G01*
X137500000Y-147500000D02*
G75*
G03X140000000Y-150000000I2500000J0D01*
G01*
X145000000Y-150000000D02*
G75*
G03X147500000Y-147500000I0J2500000D01*
G01*
X135000000Y-150000000D02*
G75*
G03X137500000Y-147500000I0J2500000D01*
G01*
X127500000Y-147500000D02*
G75*
G03X130000000Y-150000000I2500000J0D01*
G01*
X52500000Y-50000000D02*
G75*
G03X47500000Y-55000000I0J-5000000D01*
G01*
X122500000Y-150000000D02*
G75*
G03X127500000Y-145000000I0J5000000D01*
G01*
X47500000Y-145000000D02*
G75*
G03X52500000Y-150000000I5000000J0D01*
G01*
X122500000Y-50000000D02*
X52500000Y-50000000D01*
X147500000Y-147500000D02*
X147500000Y-100500000D01*
X58000000Y-150000000D02*
X117000000Y-150000000D01*
X47500000Y-55000000D02*
X47500000Y-145000000D01*
M02*
