G04 #@! TF.FileFunction,Copper,L1,Top,Signal*
%FSLAX46Y46*%
G04 Gerber Fmt 4.6, Leading zero omitted, Abs format (unit mm)*
G04 Created by KiCad (PCBNEW 4.0.6+dfsg1-1) date Fri Aug 24 17:23:30 2018*
%MOMM*%
%LPD*%
G01*
G04 APERTURE LIST*
%ADD10C,0.100000*%
%ADD11C,0.400000*%
%ADD12C,0.300000*%
%ADD13C,0.250000*%
%ADD14R,1.800000X1.800000*%
%ADD15C,1.800000*%
%ADD16R,1.700000X1.700000*%
%ADD17O,1.700000X1.700000*%
%ADD18C,1.397000*%
%ADD19C,2.400000*%
%ADD20O,2.400000X2.400000*%
%ADD21C,0.500000*%
G04 APERTURE END LIST*
D10*
D11*
X120214286Y-101928571D02*
X114214286Y-101928571D01*
X114214286Y-100785714D01*
X114500000Y-100500000D01*
X114785714Y-100357143D01*
X115357143Y-100214286D01*
X116214286Y-100214286D01*
X116785714Y-100357143D01*
X117071429Y-100500000D01*
X117357143Y-100785714D01*
X117357143Y-101928571D01*
X120214286Y-98928571D02*
X114214286Y-98928571D01*
X118500000Y-97928571D01*
X114214286Y-96928571D01*
X120214286Y-96928571D01*
X120214286Y-93928572D02*
X120214286Y-95642857D01*
X120214286Y-94785715D02*
X114214286Y-94785715D01*
X115071429Y-95071429D01*
X115642857Y-95357143D01*
X115928571Y-95642857D01*
X114214286Y-92071429D02*
X114214286Y-91785714D01*
X114500000Y-91500000D01*
X114785714Y-91357143D01*
X115357143Y-91214286D01*
X116500000Y-91071429D01*
X117928571Y-91071429D01*
X119071429Y-91214286D01*
X119642857Y-91357143D01*
X119928571Y-91500000D01*
X120214286Y-91785714D01*
X120214286Y-92071429D01*
X119928571Y-92357143D01*
X119642857Y-92500000D01*
X119071429Y-92642857D01*
X117928571Y-92785714D01*
X116500000Y-92785714D01*
X115357143Y-92642857D01*
X114785714Y-92500000D01*
X114500000Y-92357143D01*
X114214286Y-92071429D01*
D12*
X111964286Y-84107143D02*
X112321429Y-87107143D01*
X112607143Y-84964286D01*
X112892857Y-87107143D01*
X113250000Y-84107143D01*
X113821429Y-87107143D02*
X113821429Y-84107143D01*
X113821429Y-85535714D02*
X114678572Y-85535714D01*
X114678572Y-87107143D02*
X114678572Y-84107143D01*
X115678572Y-84107143D02*
X115964286Y-84107143D01*
X116107144Y-84250000D01*
X116250001Y-84535714D01*
X116321429Y-85107143D01*
X116321429Y-86107143D01*
X116250001Y-86678571D01*
X116107144Y-86964286D01*
X115964286Y-87107143D01*
X115678572Y-87107143D01*
X115535715Y-86964286D01*
X115392858Y-86678571D01*
X115321429Y-86107143D01*
X115321429Y-85107143D01*
X115392858Y-84535714D01*
X115535715Y-84250000D01*
X115678572Y-84107143D01*
X117964287Y-85107143D02*
X118321430Y-87107143D01*
X118678572Y-85107143D02*
X118321430Y-87107143D01*
X118178572Y-87821429D01*
X118107144Y-87964286D01*
X117964287Y-88107143D01*
X119821429Y-86964286D02*
X119678572Y-87107143D01*
X119392858Y-87107143D01*
X119250001Y-86964286D01*
X119178572Y-86678571D01*
X119178572Y-85535714D01*
X119250001Y-85250000D01*
X119392858Y-85107143D01*
X119678572Y-85107143D01*
X119821429Y-85250000D01*
X119892858Y-85535714D01*
X119892858Y-85821429D01*
X119178572Y-86107143D01*
X121178572Y-87107143D02*
X121178572Y-85535714D01*
X121107143Y-85250000D01*
X120964286Y-85107143D01*
X120678572Y-85107143D01*
X120535715Y-85250000D01*
X121178572Y-86964286D02*
X121035715Y-87107143D01*
X120678572Y-87107143D01*
X120535715Y-86964286D01*
X120464286Y-86678571D01*
X120464286Y-86392857D01*
X120535715Y-86107143D01*
X120678572Y-85964286D01*
X121035715Y-85964286D01*
X121178572Y-85821429D01*
X121892858Y-87107143D02*
X121892858Y-85107143D01*
X121892858Y-85678571D02*
X121964286Y-85392857D01*
X122035715Y-85250000D01*
X122178572Y-85107143D01*
X122321429Y-85107143D01*
X112107143Y-69035714D02*
X112607143Y-69035714D01*
X112821429Y-70607143D02*
X112107143Y-70607143D01*
X112107143Y-67607143D01*
X112821429Y-67607143D01*
X113464286Y-67607143D02*
X113464286Y-70035714D01*
X113535714Y-70321429D01*
X113607143Y-70464286D01*
X113750000Y-70607143D01*
X114035714Y-70607143D01*
X114178572Y-70464286D01*
X114250000Y-70321429D01*
X114321429Y-70035714D01*
X114321429Y-67607143D01*
X116035715Y-68607143D02*
X116392858Y-70607143D01*
X116750000Y-68607143D02*
X116392858Y-70607143D01*
X116250000Y-71321429D01*
X116178572Y-71464286D01*
X116035715Y-71607143D01*
X117892857Y-70464286D02*
X117750000Y-70607143D01*
X117464286Y-70607143D01*
X117321429Y-70464286D01*
X117250000Y-70178571D01*
X117250000Y-69035714D01*
X117321429Y-68750000D01*
X117464286Y-68607143D01*
X117750000Y-68607143D01*
X117892857Y-68750000D01*
X117964286Y-69035714D01*
X117964286Y-69321429D01*
X117250000Y-69607143D01*
X119250000Y-70607143D02*
X119250000Y-69035714D01*
X119178571Y-68750000D01*
X119035714Y-68607143D01*
X118750000Y-68607143D01*
X118607143Y-68750000D01*
X119250000Y-70464286D02*
X119107143Y-70607143D01*
X118750000Y-70607143D01*
X118607143Y-70464286D01*
X118535714Y-70178571D01*
X118535714Y-69892857D01*
X118607143Y-69607143D01*
X118750000Y-69464286D01*
X119107143Y-69464286D01*
X119250000Y-69321429D01*
X119964286Y-70607143D02*
X119964286Y-68607143D01*
X119964286Y-69178571D02*
X120035714Y-68892857D01*
X120107143Y-68750000D01*
X120250000Y-68607143D01*
X120392857Y-68607143D01*
X111964286Y-60857143D02*
X112321429Y-63857143D01*
X112607143Y-61714286D01*
X112892857Y-63857143D01*
X113250000Y-60857143D01*
X113821429Y-63857143D02*
X113821429Y-60857143D01*
X113821429Y-62285714D02*
X114678572Y-62285714D01*
X114678572Y-63857143D02*
X114678572Y-60857143D01*
X115678572Y-60857143D02*
X115964286Y-60857143D01*
X116107144Y-61000000D01*
X116250001Y-61285714D01*
X116321429Y-61857143D01*
X116321429Y-62857143D01*
X116250001Y-63428571D01*
X116107144Y-63714286D01*
X115964286Y-63857143D01*
X115678572Y-63857143D01*
X115535715Y-63714286D01*
X115392858Y-63428571D01*
X115321429Y-62857143D01*
X115321429Y-61857143D01*
X115392858Y-61285714D01*
X115535715Y-61000000D01*
X115678572Y-60857143D01*
X116964287Y-62714286D02*
X118107144Y-62714286D01*
X117535715Y-63857143D02*
X117535715Y-61571429D01*
X118821430Y-62285714D02*
X119321430Y-62285714D01*
X119535716Y-63857143D02*
X118821430Y-63857143D01*
X118821430Y-60857143D01*
X119535716Y-60857143D01*
X120178573Y-60857143D02*
X120178573Y-63285714D01*
X120250001Y-63571429D01*
X120321430Y-63714286D01*
X120464287Y-63857143D01*
X120750001Y-63857143D01*
X120892859Y-63714286D01*
X120964287Y-63571429D01*
X121035716Y-63285714D01*
X121035716Y-60857143D01*
X123535716Y-63857143D02*
X123535716Y-60857143D01*
X123535716Y-63714286D02*
X123392859Y-63857143D01*
X123107145Y-63857143D01*
X122964287Y-63714286D01*
X122892859Y-63571429D01*
X122821430Y-63285714D01*
X122821430Y-62428571D01*
X122892859Y-62142857D01*
X122964287Y-62000000D01*
X123107145Y-61857143D01*
X123392859Y-61857143D01*
X123535716Y-62000000D01*
X124892859Y-63857143D02*
X124892859Y-62285714D01*
X124821430Y-62000000D01*
X124678573Y-61857143D01*
X124392859Y-61857143D01*
X124250002Y-62000000D01*
X124892859Y-63714286D02*
X124750002Y-63857143D01*
X124392859Y-63857143D01*
X124250002Y-63714286D01*
X124178573Y-63428571D01*
X124178573Y-63142857D01*
X124250002Y-62857143D01*
X124392859Y-62714286D01*
X124750002Y-62714286D01*
X124892859Y-62571429D01*
X125464288Y-61857143D02*
X125821431Y-63857143D01*
X126178573Y-61857143D02*
X125821431Y-63857143D01*
X125678573Y-64571429D01*
X125607145Y-64714286D01*
X125464288Y-64857143D01*
D13*
X84738095Y-114678571D02*
X84738095Y-113178571D01*
X85071429Y-114250000D01*
X85404762Y-113178571D01*
X85404762Y-114678571D01*
X86309524Y-114678571D02*
X86309524Y-113892857D01*
X86261905Y-113750000D01*
X86166667Y-113678571D01*
X85976190Y-113678571D01*
X85880952Y-113750000D01*
X86309524Y-114607143D02*
X86214286Y-114678571D01*
X85976190Y-114678571D01*
X85880952Y-114607143D01*
X85833333Y-114464286D01*
X85833333Y-114321429D01*
X85880952Y-114178571D01*
X85976190Y-114107143D01*
X86214286Y-114107143D01*
X86309524Y-114035714D01*
X87214286Y-114678571D02*
X87214286Y-113178571D01*
X87214286Y-114607143D02*
X87119048Y-114678571D01*
X86928571Y-114678571D01*
X86833333Y-114607143D01*
X86785714Y-114535714D01*
X86738095Y-114392857D01*
X86738095Y-113964286D01*
X86785714Y-113821429D01*
X86833333Y-113750000D01*
X86928571Y-113678571D01*
X87119048Y-113678571D01*
X87214286Y-113750000D01*
X88071429Y-114607143D02*
X87976191Y-114678571D01*
X87785714Y-114678571D01*
X87690476Y-114607143D01*
X87642857Y-114464286D01*
X87642857Y-113892857D01*
X87690476Y-113750000D01*
X87785714Y-113678571D01*
X87976191Y-113678571D01*
X88071429Y-113750000D01*
X88119048Y-113892857D01*
X88119048Y-114035714D01*
X87642857Y-114178571D01*
X89309524Y-114678571D02*
X89309524Y-113178571D01*
X89309524Y-113750000D02*
X89404762Y-113678571D01*
X89595239Y-113678571D01*
X89690477Y-113750000D01*
X89738096Y-113821429D01*
X89785715Y-113964286D01*
X89785715Y-114392857D01*
X89738096Y-114535714D01*
X89690477Y-114607143D01*
X89595239Y-114678571D01*
X89404762Y-114678571D01*
X89309524Y-114607143D01*
X90119048Y-113678571D02*
X90357143Y-114678571D01*
X90595239Y-113678571D02*
X90357143Y-114678571D01*
X90261905Y-115035714D01*
X90214286Y-115107143D01*
X90119048Y-115178571D01*
X84738095Y-117178571D02*
X84738095Y-115678571D01*
X85119048Y-115678571D01*
X85214286Y-115750000D01*
X85261905Y-115821429D01*
X85309524Y-115964286D01*
X85309524Y-116178571D01*
X85261905Y-116321429D01*
X85214286Y-116392857D01*
X85119048Y-116464286D01*
X84738095Y-116464286D01*
X85738095Y-117178571D02*
X85738095Y-116178571D01*
X85738095Y-115678571D02*
X85690476Y-115750000D01*
X85738095Y-115821429D01*
X85785714Y-115750000D01*
X85738095Y-115678571D01*
X85738095Y-115821429D01*
X86595238Y-117107143D02*
X86500000Y-117178571D01*
X86309523Y-117178571D01*
X86214285Y-117107143D01*
X86166666Y-116964286D01*
X86166666Y-116392857D01*
X86214285Y-116250000D01*
X86309523Y-116178571D01*
X86500000Y-116178571D01*
X86595238Y-116250000D01*
X86642857Y-116392857D01*
X86642857Y-116535714D01*
X86166666Y-116678571D01*
X86928571Y-116178571D02*
X87309523Y-116178571D01*
X87071428Y-115678571D02*
X87071428Y-116964286D01*
X87119047Y-117107143D01*
X87214285Y-117178571D01*
X87309523Y-117178571D01*
X88023810Y-117107143D02*
X87928572Y-117178571D01*
X87738095Y-117178571D01*
X87642857Y-117107143D01*
X87595238Y-116964286D01*
X87595238Y-116392857D01*
X87642857Y-116250000D01*
X87738095Y-116178571D01*
X87928572Y-116178571D01*
X88023810Y-116250000D01*
X88071429Y-116392857D01*
X88071429Y-116535714D01*
X87595238Y-116678571D01*
X88500000Y-117178571D02*
X88500000Y-116178571D01*
X88500000Y-116464286D02*
X88547619Y-116321429D01*
X88595238Y-116250000D01*
X88690476Y-116178571D01*
X88785715Y-116178571D01*
X89738096Y-115678571D02*
X90071429Y-117178571D01*
X90404763Y-115678571D01*
X91166668Y-117178571D02*
X91166668Y-116392857D01*
X91119049Y-116250000D01*
X91023811Y-116178571D01*
X90833334Y-116178571D01*
X90738096Y-116250000D01*
X91166668Y-117107143D02*
X91071430Y-117178571D01*
X90833334Y-117178571D01*
X90738096Y-117107143D01*
X90690477Y-116964286D01*
X90690477Y-116821429D01*
X90738096Y-116678571D01*
X90833334Y-116607143D01*
X91071430Y-116607143D01*
X91166668Y-116535714D01*
X91642858Y-116178571D02*
X91642858Y-117178571D01*
X91642858Y-116321429D02*
X91690477Y-116250000D01*
X91785715Y-116178571D01*
X91928573Y-116178571D01*
X92023811Y-116250000D01*
X92071430Y-116392857D01*
X92071430Y-117178571D01*
X92976192Y-117178571D02*
X92976192Y-115678571D01*
X92976192Y-117107143D02*
X92880954Y-117178571D01*
X92690477Y-117178571D01*
X92595239Y-117107143D01*
X92547620Y-117035714D01*
X92500001Y-116892857D01*
X92500001Y-116464286D01*
X92547620Y-116321429D01*
X92595239Y-116250000D01*
X92690477Y-116178571D01*
X92880954Y-116178571D01*
X92976192Y-116250000D01*
X93833335Y-117107143D02*
X93738097Y-117178571D01*
X93547620Y-117178571D01*
X93452382Y-117107143D01*
X93404763Y-116964286D01*
X93404763Y-116392857D01*
X93452382Y-116250000D01*
X93547620Y-116178571D01*
X93738097Y-116178571D01*
X93833335Y-116250000D01*
X93880954Y-116392857D01*
X93880954Y-116535714D01*
X93404763Y-116678571D01*
X94309525Y-117178571D02*
X94309525Y-116178571D01*
X94309525Y-116464286D02*
X94357144Y-116321429D01*
X94404763Y-116250000D01*
X94500001Y-116178571D01*
X94595240Y-116178571D01*
X95547621Y-115678571D02*
X95880954Y-117178571D01*
X96214288Y-115678571D01*
X96928574Y-117107143D02*
X96833336Y-117178571D01*
X96642859Y-117178571D01*
X96547621Y-117107143D01*
X96500002Y-116964286D01*
X96500002Y-116392857D01*
X96547621Y-116250000D01*
X96642859Y-116178571D01*
X96833336Y-116178571D01*
X96928574Y-116250000D01*
X96976193Y-116392857D01*
X96976193Y-116535714D01*
X96500002Y-116678571D01*
X97404764Y-116178571D02*
X97404764Y-117178571D01*
X97404764Y-116321429D02*
X97452383Y-116250000D01*
X97547621Y-116178571D01*
X97690479Y-116178571D01*
X97785717Y-116250000D01*
X97833336Y-116392857D01*
X97833336Y-117178571D01*
X98309526Y-116178571D02*
X98309526Y-117178571D01*
X98309526Y-116321429D02*
X98357145Y-116250000D01*
X98452383Y-116178571D01*
X98595241Y-116178571D01*
X98690479Y-116250000D01*
X98738098Y-116392857D01*
X98738098Y-117178571D01*
X99595241Y-117107143D02*
X99500003Y-117178571D01*
X99309526Y-117178571D01*
X99214288Y-117107143D01*
X99166669Y-116964286D01*
X99166669Y-116392857D01*
X99214288Y-116250000D01*
X99309526Y-116178571D01*
X99500003Y-116178571D01*
X99595241Y-116250000D01*
X99642860Y-116392857D01*
X99642860Y-116535714D01*
X99166669Y-116678571D01*
X99928574Y-116178571D02*
X100309526Y-116178571D01*
X100071431Y-115678571D02*
X100071431Y-116964286D01*
X100119050Y-117107143D01*
X100214288Y-117178571D01*
X100309526Y-117178571D01*
D12*
X54571429Y-62285714D02*
X55071429Y-62285714D01*
X55285715Y-63857143D02*
X54571429Y-63857143D01*
X54571429Y-60857143D01*
X55285715Y-60857143D01*
X55928572Y-60857143D02*
X55928572Y-63285714D01*
X56000000Y-63571429D01*
X56071429Y-63714286D01*
X56214286Y-63857143D01*
X56500000Y-63857143D01*
X56642858Y-63714286D01*
X56714286Y-63571429D01*
X56785715Y-63285714D01*
X56785715Y-60857143D01*
X58500001Y-61857143D02*
X58857144Y-63857143D01*
X59214286Y-61857143D02*
X58857144Y-63857143D01*
X58714286Y-64571429D01*
X58642858Y-64714286D01*
X58500001Y-64857143D01*
X60357143Y-63714286D02*
X60214286Y-63857143D01*
X59928572Y-63857143D01*
X59785715Y-63714286D01*
X59714286Y-63428571D01*
X59714286Y-62285714D01*
X59785715Y-62000000D01*
X59928572Y-61857143D01*
X60214286Y-61857143D01*
X60357143Y-62000000D01*
X60428572Y-62285714D01*
X60428572Y-62571429D01*
X59714286Y-62857143D01*
X61714286Y-63857143D02*
X61714286Y-62285714D01*
X61642857Y-62000000D01*
X61500000Y-61857143D01*
X61214286Y-61857143D01*
X61071429Y-62000000D01*
X61714286Y-63714286D02*
X61571429Y-63857143D01*
X61214286Y-63857143D01*
X61071429Y-63714286D01*
X61000000Y-63428571D01*
X61000000Y-63142857D01*
X61071429Y-62857143D01*
X61214286Y-62714286D01*
X61571429Y-62714286D01*
X61714286Y-62571429D01*
X62428572Y-63857143D02*
X62428572Y-61857143D01*
X62428572Y-62428571D02*
X62500000Y-62142857D01*
X62571429Y-62000000D01*
X62714286Y-61857143D01*
X62857143Y-61857143D01*
X53607142Y-67357143D02*
X53964285Y-70357143D01*
X54249999Y-68214286D01*
X54535713Y-70357143D01*
X54892856Y-67357143D01*
X55464285Y-70357143D02*
X55464285Y-67357143D01*
X55464285Y-68785714D02*
X56321428Y-68785714D01*
X56321428Y-70357143D02*
X56321428Y-67357143D01*
X57321428Y-67357143D02*
X57607142Y-67357143D01*
X57750000Y-67500000D01*
X57892857Y-67785714D01*
X57964285Y-68357143D01*
X57964285Y-69357143D01*
X57892857Y-69928571D01*
X57750000Y-70214286D01*
X57607142Y-70357143D01*
X57321428Y-70357143D01*
X57178571Y-70214286D01*
X57035714Y-69928571D01*
X56964285Y-69357143D01*
X56964285Y-68357143D01*
X57035714Y-67785714D01*
X57178571Y-67500000D01*
X57321428Y-67357143D01*
X60392857Y-70357143D02*
X60392857Y-67357143D01*
X60392857Y-70214286D02*
X60250000Y-70357143D01*
X59964286Y-70357143D01*
X59821428Y-70214286D01*
X59750000Y-70071429D01*
X59678571Y-69785714D01*
X59678571Y-68928571D01*
X59750000Y-68642857D01*
X59821428Y-68500000D01*
X59964286Y-68357143D01*
X60250000Y-68357143D01*
X60392857Y-68500000D01*
X61750000Y-70357143D02*
X61750000Y-68785714D01*
X61678571Y-68500000D01*
X61535714Y-68357143D01*
X61250000Y-68357143D01*
X61107143Y-68500000D01*
X61750000Y-70214286D02*
X61607143Y-70357143D01*
X61250000Y-70357143D01*
X61107143Y-70214286D01*
X61035714Y-69928571D01*
X61035714Y-69642857D01*
X61107143Y-69357143D01*
X61250000Y-69214286D01*
X61607143Y-69214286D01*
X61750000Y-69071429D01*
X62321429Y-68357143D02*
X62678572Y-70357143D01*
X63035714Y-68357143D02*
X62678572Y-70357143D01*
X62535714Y-71071429D01*
X62464286Y-71214286D01*
X62321429Y-71357143D01*
X52750000Y-84107143D02*
X53107143Y-87107143D01*
X53392857Y-84964286D01*
X53678571Y-87107143D01*
X54035714Y-84107143D01*
X54607143Y-87107143D02*
X54607143Y-84107143D01*
X54607143Y-85535714D02*
X55464286Y-85535714D01*
X55464286Y-87107143D02*
X55464286Y-84107143D01*
X56464286Y-84107143D02*
X56750000Y-84107143D01*
X56892858Y-84250000D01*
X57035715Y-84535714D01*
X57107143Y-85107143D01*
X57107143Y-86107143D01*
X57035715Y-86678571D01*
X56892858Y-86964286D01*
X56750000Y-87107143D01*
X56464286Y-87107143D01*
X56321429Y-86964286D01*
X56178572Y-86678571D01*
X56107143Y-86107143D01*
X56107143Y-85107143D01*
X56178572Y-84535714D01*
X56321429Y-84250000D01*
X56464286Y-84107143D01*
X58750001Y-85107143D02*
X59107144Y-87107143D01*
X59464286Y-85107143D02*
X59107144Y-87107143D01*
X58964286Y-87821429D01*
X58892858Y-87964286D01*
X58750001Y-88107143D01*
X60607143Y-86964286D02*
X60464286Y-87107143D01*
X60178572Y-87107143D01*
X60035715Y-86964286D01*
X59964286Y-86678571D01*
X59964286Y-85535714D01*
X60035715Y-85250000D01*
X60178572Y-85107143D01*
X60464286Y-85107143D01*
X60607143Y-85250000D01*
X60678572Y-85535714D01*
X60678572Y-85821429D01*
X59964286Y-86107143D01*
X61964286Y-87107143D02*
X61964286Y-85535714D01*
X61892857Y-85250000D01*
X61750000Y-85107143D01*
X61464286Y-85107143D01*
X61321429Y-85250000D01*
X61964286Y-86964286D02*
X61821429Y-87107143D01*
X61464286Y-87107143D01*
X61321429Y-86964286D01*
X61250000Y-86678571D01*
X61250000Y-86392857D01*
X61321429Y-86107143D01*
X61464286Y-85964286D01*
X61821429Y-85964286D01*
X61964286Y-85821429D01*
X62678572Y-87107143D02*
X62678572Y-85107143D01*
X62678572Y-85678571D02*
X62750000Y-85392857D01*
X62821429Y-85250000D01*
X62964286Y-85107143D01*
X63107143Y-85107143D01*
D11*
X54785714Y-90714286D02*
X60785714Y-90714286D01*
X60785714Y-91857143D01*
X60500000Y-92142857D01*
X60214286Y-92285714D01*
X59642857Y-92428571D01*
X58785714Y-92428571D01*
X58214286Y-92285714D01*
X57928571Y-92142857D01*
X57642857Y-91857143D01*
X57642857Y-90714286D01*
X54785714Y-93714286D02*
X60785714Y-93714286D01*
X56500000Y-94714286D01*
X60785714Y-95714286D01*
X54785714Y-95714286D01*
X60214286Y-97000000D02*
X60500000Y-97142857D01*
X60785714Y-97428571D01*
X60785714Y-98142857D01*
X60500000Y-98428571D01*
X60214286Y-98571428D01*
X59642857Y-98714285D01*
X59071429Y-98714285D01*
X58214286Y-98571428D01*
X54785714Y-96857142D01*
X54785714Y-98714285D01*
X55357143Y-100000000D02*
X55071429Y-100142857D01*
X54785714Y-100000000D01*
X55071429Y-99857143D01*
X55357143Y-100000000D01*
X54785714Y-100000000D01*
X60785714Y-102857142D02*
X60785714Y-101428571D01*
X57928571Y-101285714D01*
X58214286Y-101428571D01*
X58500000Y-101714285D01*
X58500000Y-102428571D01*
X58214286Y-102714285D01*
X57928571Y-102857142D01*
X57357143Y-102999999D01*
X55928571Y-102999999D01*
X55357143Y-102857142D01*
X55071429Y-102714285D01*
X54785714Y-102428571D01*
X54785714Y-101714285D01*
X55071429Y-101428571D01*
X55357143Y-101285714D01*
D14*
X85000000Y-90000000D03*
D15*
X82460000Y-90000000D03*
D14*
X85000000Y-82500000D03*
D15*
X82460000Y-82500000D03*
D14*
X85000000Y-75000000D03*
D15*
X82460000Y-75000000D03*
D14*
X85000000Y-67500000D03*
D15*
X82460000Y-67500000D03*
D14*
X85000000Y-60000000D03*
D15*
X82460000Y-60000000D03*
D14*
X89960000Y-97500000D03*
D15*
X92500000Y-97500000D03*
D14*
X90000000Y-90000000D03*
D15*
X92540000Y-90000000D03*
D14*
X90000000Y-82500000D03*
D15*
X92540000Y-82500000D03*
D14*
X90000000Y-75000000D03*
D15*
X92540000Y-75000000D03*
D14*
X90000000Y-67500000D03*
D15*
X92540000Y-67500000D03*
D14*
X90000000Y-60000000D03*
D15*
X92540000Y-60000000D03*
D16*
X105310000Y-107500000D03*
D17*
X102770000Y-107500000D03*
X100230000Y-107500000D03*
X97690000Y-107500000D03*
X95150000Y-107500000D03*
X92610000Y-107500000D03*
X90070000Y-107500000D03*
X87530000Y-107500000D03*
X84990000Y-107500000D03*
X82450000Y-107500000D03*
X79910000Y-107500000D03*
X77370000Y-107500000D03*
X74830000Y-107500000D03*
X72290000Y-107500000D03*
X69750000Y-107500000D03*
D16*
X69750000Y-135250000D03*
D17*
X72290000Y-135250000D03*
X74830000Y-135250000D03*
X77370000Y-135250000D03*
X79910000Y-135250000D03*
X82450000Y-135250000D03*
X84990000Y-135250000D03*
X87530000Y-135250000D03*
X90070000Y-135250000D03*
X92610000Y-135250000D03*
X95150000Y-135250000D03*
X97690000Y-135250000D03*
X100230000Y-135250000D03*
X102770000Y-135250000D03*
X105310000Y-135250000D03*
D14*
X85000000Y-97500000D03*
D15*
X82460000Y-97500000D03*
D18*
X53770000Y-55000000D03*
X51230000Y-55000000D03*
D19*
X52500000Y-107500000D03*
D20*
X65200000Y-107500000D03*
D19*
X109800000Y-107500000D03*
D20*
X122500000Y-107500000D03*
D19*
X52500000Y-135000000D03*
D20*
X65200000Y-135000000D03*
D19*
X122500000Y-135250000D03*
D20*
X109800000Y-135250000D03*
D21*
X95000000Y-70500000D02*
X110000000Y-70500000D01*
X76500000Y-63750000D02*
X65000000Y-63750000D01*
X110000000Y-63750000D02*
X98500000Y-63750000D01*
X65000000Y-70500000D02*
X80000000Y-70500000D01*
X65000000Y-87000000D02*
X80000000Y-87000000D01*
X95000000Y-87000000D02*
X110000000Y-87000000D01*
D13*
X107500000Y-105000000D02*
X92500000Y-105000000D01*
X107500000Y-105000000D02*
X110000000Y-107500000D01*
X89960000Y-102460000D02*
X92500000Y-105000000D01*
X89960000Y-97500000D02*
X89960000Y-102460000D01*
X90000000Y-90000000D02*
X90000000Y-91150000D01*
X90000000Y-91150000D02*
X90000000Y-97500000D01*
X97690000Y-107500000D02*
X98500000Y-107500000D01*
X50750000Y-107000000D02*
X50750000Y-133250000D01*
X52500000Y-135000000D02*
X50750000Y-133250000D01*
X86750000Y-85400000D02*
X86750000Y-102500000D01*
X85000000Y-82500000D02*
X85000000Y-83650000D01*
X85000000Y-83650000D02*
X86750000Y-85400000D01*
X86750000Y-102500000D02*
X84750000Y-104500000D01*
X84750000Y-104500000D02*
X53250000Y-104500000D01*
X53250000Y-104500000D02*
X50750000Y-107000000D01*
X85000000Y-75000000D02*
X85000000Y-76150000D01*
X85000000Y-76150000D02*
X85000000Y-82500000D01*
X87500000Y-68750000D02*
X87500000Y-102500000D01*
X87500000Y-102500000D02*
X85000000Y-105000000D01*
X85000000Y-105000000D02*
X55000000Y-105000000D01*
X55000000Y-105000000D02*
X52500000Y-107500000D01*
X90000000Y-60000000D02*
X88850000Y-60000000D01*
X88850000Y-60000000D02*
X87500000Y-61350000D01*
X90000000Y-67500000D02*
X88850000Y-67500000D01*
X88850000Y-67500000D02*
X87600000Y-68750000D01*
X87600000Y-68750000D02*
X87500000Y-68750000D01*
X87500000Y-61350000D02*
X87500000Y-68750000D01*
X87400000Y-68750000D02*
X87500000Y-68750000D01*
X85000000Y-67500000D02*
X86150000Y-67500000D01*
X86150000Y-67500000D02*
X87400000Y-68750000D01*
X85000000Y-60000000D02*
X86150000Y-60000000D01*
X86150000Y-60000000D02*
X87500000Y-61350000D01*
X53770000Y-55000000D02*
X53750000Y-55000000D01*
X53750000Y-55000000D02*
X53250000Y-55500000D01*
M02*
