G04 #@! TF.FileFunction,Copper,L2,Bot,Signal*
%FSLAX46Y46*%
G04 Gerber Fmt 4.6, Leading zero omitted, Abs format (unit mm)*
G04 Created by KiCad (PCBNEW 4.0.6+dfsg1-1) date Fri Aug 24 17:23:30 2018*
%MOMM*%
%LPD*%
G01*
G04 APERTURE LIST*
%ADD10C,0.100000*%
%ADD11R,1.800000X1.800000*%
%ADD12C,1.800000*%
%ADD13R,1.700000X1.700000*%
%ADD14O,1.700000X1.700000*%
%ADD15C,1.397000*%
%ADD16C,2.400000*%
%ADD17O,2.400000X2.400000*%
%ADD18C,0.250000*%
G04 APERTURE END LIST*
D10*
D11*
X85000000Y-90000000D03*
D12*
X82460000Y-90000000D03*
D11*
X85000000Y-82500000D03*
D12*
X82460000Y-82500000D03*
D11*
X85000000Y-75000000D03*
D12*
X82460000Y-75000000D03*
D11*
X85000000Y-67500000D03*
D12*
X82460000Y-67500000D03*
D11*
X85000000Y-60000000D03*
D12*
X82460000Y-60000000D03*
D11*
X89960000Y-97500000D03*
D12*
X92500000Y-97500000D03*
D11*
X90000000Y-90000000D03*
D12*
X92540000Y-90000000D03*
D11*
X90000000Y-82500000D03*
D12*
X92540000Y-82500000D03*
D11*
X90000000Y-75000000D03*
D12*
X92540000Y-75000000D03*
D11*
X90000000Y-67500000D03*
D12*
X92540000Y-67500000D03*
D11*
X90000000Y-60000000D03*
D12*
X92540000Y-60000000D03*
D13*
X105310000Y-107500000D03*
D14*
X102770000Y-107500000D03*
X100230000Y-107500000D03*
X97690000Y-107500000D03*
X95150000Y-107500000D03*
X92610000Y-107500000D03*
X90070000Y-107500000D03*
X87530000Y-107500000D03*
X84990000Y-107500000D03*
X82450000Y-107500000D03*
X79910000Y-107500000D03*
X77370000Y-107500000D03*
X74830000Y-107500000D03*
X72290000Y-107500000D03*
X69750000Y-107500000D03*
D13*
X69750000Y-135250000D03*
D14*
X72290000Y-135250000D03*
X74830000Y-135250000D03*
X77370000Y-135250000D03*
X79910000Y-135250000D03*
X82450000Y-135250000D03*
X84990000Y-135250000D03*
X87530000Y-135250000D03*
X90070000Y-135250000D03*
X92610000Y-135250000D03*
X95150000Y-135250000D03*
X97690000Y-135250000D03*
X100230000Y-135250000D03*
X102770000Y-135250000D03*
X105310000Y-135250000D03*
D11*
X85000000Y-97500000D03*
D12*
X82460000Y-97500000D03*
D15*
X53770000Y-55000000D03*
X51230000Y-55000000D03*
D16*
X52500000Y-107500000D03*
D17*
X65200000Y-107500000D03*
D16*
X109800000Y-107500000D03*
D17*
X122500000Y-107500000D03*
D16*
X52500000Y-135000000D03*
D17*
X65200000Y-135000000D03*
D16*
X122500000Y-135250000D03*
D17*
X109800000Y-135250000D03*
D18*
X85000000Y-97500000D02*
X86150000Y-97500000D01*
X86150000Y-97500000D02*
X90000000Y-97500000D01*
X85000000Y-90000000D02*
X90000000Y-90000000D01*
X83685001Y-98725001D02*
X83685001Y-102435001D01*
X83685001Y-102435001D02*
X87124988Y-105874988D01*
X87124988Y-105874988D02*
X98604988Y-105874988D01*
X98604988Y-105874988D02*
X99380001Y-106650001D01*
X99380001Y-106650001D02*
X100230000Y-107500000D01*
X83685001Y-98725001D02*
X83685001Y-83725001D01*
X83685001Y-83725001D02*
X82460000Y-82500000D01*
X82460000Y-67500000D02*
X82460000Y-68772792D01*
X82460000Y-68772792D02*
X83685001Y-69997793D01*
X83685001Y-69997793D02*
X83685001Y-98725001D01*
X83685001Y-98725001D02*
X82460000Y-97500000D01*
X97690000Y-107500000D02*
X96514999Y-106324999D01*
X96514999Y-106324999D02*
X83824999Y-106324999D01*
X83824999Y-106324999D02*
X80000000Y-102500000D01*
X80000000Y-102500000D02*
X80000000Y-99750000D01*
X80000000Y-92500000D02*
X80000000Y-99750000D01*
X80000000Y-99750000D02*
X80000000Y-100000000D01*
X80000000Y-62500000D02*
X80000000Y-77500000D01*
X80000000Y-77500000D02*
X80000000Y-92500000D01*
X82460000Y-75000000D02*
X80000000Y-77460000D01*
X80000000Y-77460000D02*
X80000000Y-77500000D01*
X82460000Y-90000000D02*
X81560001Y-90899999D01*
X81560001Y-90899999D02*
X81560001Y-90939999D01*
X81560001Y-90939999D02*
X80000000Y-92500000D01*
X81560001Y-60939999D02*
X80000000Y-62500000D01*
X82460000Y-60000000D02*
X81560001Y-60899999D01*
X81560001Y-60899999D02*
X81560001Y-60939999D01*
X91314999Y-102564999D02*
X94174976Y-105424977D01*
X94174976Y-105424977D02*
X100694977Y-105424977D01*
X100694977Y-105424977D02*
X101920001Y-106650001D01*
X101920001Y-106650001D02*
X102770000Y-107500000D01*
X91314999Y-98750000D02*
X91314999Y-102564999D01*
X91314999Y-68725001D02*
X91314999Y-83750000D01*
X91314999Y-83750000D02*
X91314999Y-98500000D01*
X91640001Y-83399999D02*
X91640001Y-83424998D01*
X92540000Y-82500000D02*
X91640001Y-83399999D01*
X91640001Y-83424998D02*
X91314999Y-83750000D01*
X91314999Y-98500000D02*
X91314999Y-98750000D01*
X92540000Y-97500000D02*
X91640001Y-98399999D01*
X91640001Y-98399999D02*
X91640001Y-98424998D01*
X91640001Y-98424998D02*
X91314999Y-98750000D01*
X91415000Y-98399999D02*
X91314999Y-98500000D01*
X92540000Y-67500000D02*
X91314999Y-68725001D01*
X95000000Y-92460000D02*
X95000000Y-103000000D01*
X95000000Y-103000000D02*
X96750000Y-104750000D01*
X96750000Y-104750000D02*
X103660000Y-104750000D01*
X103660000Y-104750000D02*
X105310000Y-106400000D01*
X105310000Y-106400000D02*
X105310000Y-107500000D01*
X95000000Y-92250000D02*
X95000000Y-92460000D01*
X95000000Y-77460000D02*
X95000000Y-92250000D01*
X95000000Y-92460000D02*
X92540000Y-90000000D01*
X92540000Y-60000000D02*
X93439999Y-60899999D01*
X93439999Y-60899999D02*
X93439999Y-60939999D01*
X93439999Y-60939999D02*
X95000000Y-62500000D01*
X95000000Y-62500000D02*
X95000000Y-77460000D01*
X95000000Y-77460000D02*
X92540000Y-75000000D01*
X90000000Y-82500000D02*
X88850000Y-82500000D01*
X88850000Y-82500000D02*
X85000000Y-82500000D01*
X90000000Y-75000000D02*
X85000000Y-75000000D01*
X77660000Y-137500000D02*
X64500000Y-137500000D01*
X64500000Y-137500000D02*
X49500000Y-122500000D01*
X79910000Y-135250000D02*
X77660000Y-137500000D01*
X49500000Y-122500000D02*
X49500000Y-56750000D01*
X49500000Y-56750000D02*
X50531501Y-55718499D01*
X50531501Y-55718499D02*
X50531501Y-55698499D01*
X50531501Y-55698499D02*
X51230000Y-55000000D01*
X120250000Y-137500000D02*
X84700000Y-137500000D01*
X84700000Y-137500000D02*
X82450000Y-135250000D01*
X122500000Y-135250000D02*
X120250000Y-137500000D01*
X122500000Y-107500000D02*
X120000000Y-110000000D01*
X90030000Y-110000000D02*
X87530000Y-107500000D01*
X120000000Y-110000000D02*
X90030000Y-110000000D01*
X84990000Y-107500000D02*
X66490000Y-126000000D01*
X66490000Y-126000000D02*
X65990000Y-126500000D01*
X65250000Y-133252944D02*
X65250000Y-127240000D01*
X65250000Y-127240000D02*
X66490000Y-126000000D01*
X65200000Y-135000000D02*
X65200000Y-133302944D01*
X65200000Y-133302944D02*
X65250000Y-133252944D01*
X67700000Y-110000000D02*
X79950000Y-110000000D01*
X79950000Y-110000000D02*
X82450000Y-107500000D01*
X65200000Y-107500000D02*
X67700000Y-110000000D01*
X70000000Y-132500000D02*
X65974999Y-136525001D01*
X64217999Y-136525001D02*
X50000000Y-122307002D01*
X65974999Y-136525001D02*
X64217999Y-136525001D01*
X50750000Y-56500000D02*
X50020000Y-57230000D01*
X50020000Y-57230000D02*
X50020000Y-58750000D01*
X52270000Y-56500000D02*
X50750000Y-56500000D01*
X53770000Y-55000000D02*
X52270000Y-56500000D01*
X50000000Y-122307002D02*
X50000000Y-58750000D01*
X50020000Y-58750000D02*
X50000000Y-58750000D01*
X105310000Y-135250000D02*
X102560000Y-132500000D01*
X102560000Y-132500000D02*
X70000000Y-132500000D01*
X105310000Y-135250000D02*
X109800000Y-135250000D01*
M02*
