M48
METRIC,TZ
T1C0.813
T2C0.900
T3C1.000
T4C1.200
%
G90
G05
T1
X51230Y-55000
X53770Y-55000
T2
X82460Y-60000
X82460Y-67500
X82460Y-75000
X82460Y-82500
X82460Y-90000
X82460Y-97500
X85000Y-60000
X85000Y-67500
X85000Y-75000
X85000Y-82500
X85000Y-90000
X85000Y-97500
X89960Y-97500
X90000Y-60000
X90000Y-67500
X90000Y-75000
X90000Y-82500
X90000Y-90000
X92500Y-97500
X92540Y-60000
X92540Y-67500
X92540Y-75000
X92540Y-82500
X92540Y-90000
T3
X69750Y-107500
X69750Y-135250
X72290Y-107500
X72290Y-135250
X74830Y-107500
X74830Y-135250
X77370Y-107500
X77370Y-135250
X79910Y-107500
X79910Y-135250
X82450Y-107500
X82450Y-135250
X84990Y-107500
X84990Y-135250
X87530Y-107500
X87530Y-135250
X90070Y-107500
X90070Y-135250
X92610Y-107500
X92610Y-135250
X95150Y-107500
X95150Y-135250
X97690Y-107500
X97690Y-135250
X100230Y-107500
X100230Y-135250
X102770Y-107500
X102770Y-135250
X105310Y-107500
X105310Y-135250
T4
X52500Y-107500
X52500Y-135000
X65200Y-107500
X65200Y-135000
X109800Y-107500
X109800Y-135250
X122500Y-107500
X122500Y-135250
T0
M30
