G04 #@! TF.FileFunction,Soldermask,Top*
%FSLAX46Y46*%
G04 Gerber Fmt 4.6, Leading zero omitted, Abs format (unit mm)*
G04 Created by KiCad (PCBNEW 4.0.6+dfsg1-1) date Fri Aug 24 17:23:30 2018*
%MOMM*%
%LPD*%
G01*
G04 APERTURE LIST*
%ADD10C,0.100000*%
%ADD11C,0.500000*%
%ADD12C,0.400000*%
%ADD13C,0.300000*%
%ADD14R,2.200000X2.200000*%
%ADD15C,2.200000*%
%ADD16R,2.100000X2.100000*%
%ADD17O,2.100000X2.100000*%
%ADD18C,1.797000*%
%ADD19C,2.800000*%
%ADD20O,2.800000X2.800000*%
G04 APERTURE END LIST*
D10*
D11*
X80000000Y-87000000D02*
X65000000Y-87000000D01*
X80000000Y-70500000D02*
X65000000Y-70500000D01*
X65000000Y-63750000D02*
X76500000Y-63750000D01*
X110000000Y-63750000D02*
X98500000Y-63750000D01*
X110000000Y-70500000D02*
X95000000Y-70500000D01*
X110000000Y-87000000D02*
X95000000Y-87000000D01*
D12*
X54785714Y-90714286D02*
X60785714Y-90714286D01*
X60785714Y-91857143D01*
X60500000Y-92142857D01*
X60214286Y-92285714D01*
X59642857Y-92428571D01*
X58785714Y-92428571D01*
X58214286Y-92285714D01*
X57928571Y-92142857D01*
X57642857Y-91857143D01*
X57642857Y-90714286D01*
X54785714Y-93714286D02*
X60785714Y-93714286D01*
X56500000Y-94714286D01*
X60785714Y-95714286D01*
X54785714Y-95714286D01*
X60214286Y-97000000D02*
X60500000Y-97142857D01*
X60785714Y-97428571D01*
X60785714Y-98142857D01*
X60500000Y-98428571D01*
X60214286Y-98571428D01*
X59642857Y-98714285D01*
X59071429Y-98714285D01*
X58214286Y-98571428D01*
X54785714Y-96857142D01*
X54785714Y-98714285D01*
X55357143Y-100000000D02*
X55071429Y-100142857D01*
X54785714Y-100000000D01*
X55071429Y-99857143D01*
X55357143Y-100000000D01*
X54785714Y-100000000D01*
X60785714Y-102857142D02*
X60785714Y-101428571D01*
X57928571Y-101285714D01*
X58214286Y-101428571D01*
X58500000Y-101714285D01*
X58500000Y-102428571D01*
X58214286Y-102714285D01*
X57928571Y-102857142D01*
X57357143Y-102999999D01*
X55928571Y-102999999D01*
X55357143Y-102857142D01*
X55071429Y-102714285D01*
X54785714Y-102428571D01*
X54785714Y-101714285D01*
X55071429Y-101428571D01*
X55357143Y-101285714D01*
D13*
X52750000Y-84107143D02*
X53107143Y-87107143D01*
X53392857Y-84964286D01*
X53678571Y-87107143D01*
X54035714Y-84107143D01*
X54607143Y-87107143D02*
X54607143Y-84107143D01*
X54607143Y-85535714D02*
X55464286Y-85535714D01*
X55464286Y-87107143D02*
X55464286Y-84107143D01*
X56464286Y-84107143D02*
X56750000Y-84107143D01*
X56892858Y-84250000D01*
X57035715Y-84535714D01*
X57107143Y-85107143D01*
X57107143Y-86107143D01*
X57035715Y-86678571D01*
X56892858Y-86964286D01*
X56750000Y-87107143D01*
X56464286Y-87107143D01*
X56321429Y-86964286D01*
X56178572Y-86678571D01*
X56107143Y-86107143D01*
X56107143Y-85107143D01*
X56178572Y-84535714D01*
X56321429Y-84250000D01*
X56464286Y-84107143D01*
X58750001Y-85107143D02*
X59107144Y-87107143D01*
X59464286Y-85107143D02*
X59107144Y-87107143D01*
X58964286Y-87821429D01*
X58892858Y-87964286D01*
X58750001Y-88107143D01*
X60607143Y-86964286D02*
X60464286Y-87107143D01*
X60178572Y-87107143D01*
X60035715Y-86964286D01*
X59964286Y-86678571D01*
X59964286Y-85535714D01*
X60035715Y-85250000D01*
X60178572Y-85107143D01*
X60464286Y-85107143D01*
X60607143Y-85250000D01*
X60678572Y-85535714D01*
X60678572Y-85821429D01*
X59964286Y-86107143D01*
X61964286Y-87107143D02*
X61964286Y-85535714D01*
X61892857Y-85250000D01*
X61750000Y-85107143D01*
X61464286Y-85107143D01*
X61321429Y-85250000D01*
X61964286Y-86964286D02*
X61821429Y-87107143D01*
X61464286Y-87107143D01*
X61321429Y-86964286D01*
X61250000Y-86678571D01*
X61250000Y-86392857D01*
X61321429Y-86107143D01*
X61464286Y-85964286D01*
X61821429Y-85964286D01*
X61964286Y-85821429D01*
X62678572Y-87107143D02*
X62678572Y-85107143D01*
X62678572Y-85678571D02*
X62750000Y-85392857D01*
X62821429Y-85250000D01*
X62964286Y-85107143D01*
X63107143Y-85107143D01*
X53607142Y-67357143D02*
X53964285Y-70357143D01*
X54249999Y-68214286D01*
X54535713Y-70357143D01*
X54892856Y-67357143D01*
X55464285Y-70357143D02*
X55464285Y-67357143D01*
X55464285Y-68785714D02*
X56321428Y-68785714D01*
X56321428Y-70357143D02*
X56321428Y-67357143D01*
X57321428Y-67357143D02*
X57607142Y-67357143D01*
X57750000Y-67500000D01*
X57892857Y-67785714D01*
X57964285Y-68357143D01*
X57964285Y-69357143D01*
X57892857Y-69928571D01*
X57750000Y-70214286D01*
X57607142Y-70357143D01*
X57321428Y-70357143D01*
X57178571Y-70214286D01*
X57035714Y-69928571D01*
X56964285Y-69357143D01*
X56964285Y-68357143D01*
X57035714Y-67785714D01*
X57178571Y-67500000D01*
X57321428Y-67357143D01*
X60392857Y-70357143D02*
X60392857Y-67357143D01*
X60392857Y-70214286D02*
X60250000Y-70357143D01*
X59964286Y-70357143D01*
X59821428Y-70214286D01*
X59750000Y-70071429D01*
X59678571Y-69785714D01*
X59678571Y-68928571D01*
X59750000Y-68642857D01*
X59821428Y-68500000D01*
X59964286Y-68357143D01*
X60250000Y-68357143D01*
X60392857Y-68500000D01*
X61750000Y-70357143D02*
X61750000Y-68785714D01*
X61678571Y-68500000D01*
X61535714Y-68357143D01*
X61250000Y-68357143D01*
X61107143Y-68500000D01*
X61750000Y-70214286D02*
X61607143Y-70357143D01*
X61250000Y-70357143D01*
X61107143Y-70214286D01*
X61035714Y-69928571D01*
X61035714Y-69642857D01*
X61107143Y-69357143D01*
X61250000Y-69214286D01*
X61607143Y-69214286D01*
X61750000Y-69071429D01*
X62321429Y-68357143D02*
X62678572Y-70357143D01*
X63035714Y-68357143D02*
X62678572Y-70357143D01*
X62535714Y-71071429D01*
X62464286Y-71214286D01*
X62321429Y-71357143D01*
X54571429Y-62285714D02*
X55071429Y-62285714D01*
X55285715Y-63857143D02*
X54571429Y-63857143D01*
X54571429Y-60857143D01*
X55285715Y-60857143D01*
X55928572Y-60857143D02*
X55928572Y-63285714D01*
X56000000Y-63571429D01*
X56071429Y-63714286D01*
X56214286Y-63857143D01*
X56500000Y-63857143D01*
X56642858Y-63714286D01*
X56714286Y-63571429D01*
X56785715Y-63285714D01*
X56785715Y-60857143D01*
X58500001Y-61857143D02*
X58857144Y-63857143D01*
X59214286Y-61857143D02*
X58857144Y-63857143D01*
X58714286Y-64571429D01*
X58642858Y-64714286D01*
X58500001Y-64857143D01*
X60357143Y-63714286D02*
X60214286Y-63857143D01*
X59928572Y-63857143D01*
X59785715Y-63714286D01*
X59714286Y-63428571D01*
X59714286Y-62285714D01*
X59785715Y-62000000D01*
X59928572Y-61857143D01*
X60214286Y-61857143D01*
X60357143Y-62000000D01*
X60428572Y-62285714D01*
X60428572Y-62571429D01*
X59714286Y-62857143D01*
X61714286Y-63857143D02*
X61714286Y-62285714D01*
X61642857Y-62000000D01*
X61500000Y-61857143D01*
X61214286Y-61857143D01*
X61071429Y-62000000D01*
X61714286Y-63714286D02*
X61571429Y-63857143D01*
X61214286Y-63857143D01*
X61071429Y-63714286D01*
X61000000Y-63428571D01*
X61000000Y-63142857D01*
X61071429Y-62857143D01*
X61214286Y-62714286D01*
X61571429Y-62714286D01*
X61714286Y-62571429D01*
X62428572Y-63857143D02*
X62428572Y-61857143D01*
X62428572Y-62428571D02*
X62500000Y-62142857D01*
X62571429Y-62000000D01*
X62714286Y-61857143D01*
X62857143Y-61857143D01*
X111964286Y-60857143D02*
X112321429Y-63857143D01*
X112607143Y-61714286D01*
X112892857Y-63857143D01*
X113250000Y-60857143D01*
X113821429Y-63857143D02*
X113821429Y-60857143D01*
X113821429Y-62285714D02*
X114678572Y-62285714D01*
X114678572Y-63857143D02*
X114678572Y-60857143D01*
X115678572Y-60857143D02*
X115964286Y-60857143D01*
X116107144Y-61000000D01*
X116250001Y-61285714D01*
X116321429Y-61857143D01*
X116321429Y-62857143D01*
X116250001Y-63428571D01*
X116107144Y-63714286D01*
X115964286Y-63857143D01*
X115678572Y-63857143D01*
X115535715Y-63714286D01*
X115392858Y-63428571D01*
X115321429Y-62857143D01*
X115321429Y-61857143D01*
X115392858Y-61285714D01*
X115535715Y-61000000D01*
X115678572Y-60857143D01*
X116964287Y-62714286D02*
X118107144Y-62714286D01*
X117535715Y-63857143D02*
X117535715Y-61571429D01*
X118821430Y-62285714D02*
X119321430Y-62285714D01*
X119535716Y-63857143D02*
X118821430Y-63857143D01*
X118821430Y-60857143D01*
X119535716Y-60857143D01*
X120178573Y-60857143D02*
X120178573Y-63285714D01*
X120250001Y-63571429D01*
X120321430Y-63714286D01*
X120464287Y-63857143D01*
X120750001Y-63857143D01*
X120892859Y-63714286D01*
X120964287Y-63571429D01*
X121035716Y-63285714D01*
X121035716Y-60857143D01*
X123535716Y-63857143D02*
X123535716Y-60857143D01*
X123535716Y-63714286D02*
X123392859Y-63857143D01*
X123107145Y-63857143D01*
X122964287Y-63714286D01*
X122892859Y-63571429D01*
X122821430Y-63285714D01*
X122821430Y-62428571D01*
X122892859Y-62142857D01*
X122964287Y-62000000D01*
X123107145Y-61857143D01*
X123392859Y-61857143D01*
X123535716Y-62000000D01*
X124892859Y-63857143D02*
X124892859Y-62285714D01*
X124821430Y-62000000D01*
X124678573Y-61857143D01*
X124392859Y-61857143D01*
X124250002Y-62000000D01*
X124892859Y-63714286D02*
X124750002Y-63857143D01*
X124392859Y-63857143D01*
X124250002Y-63714286D01*
X124178573Y-63428571D01*
X124178573Y-63142857D01*
X124250002Y-62857143D01*
X124392859Y-62714286D01*
X124750002Y-62714286D01*
X124892859Y-62571429D01*
X125464288Y-61857143D02*
X125821431Y-63857143D01*
X126178573Y-61857143D02*
X125821431Y-63857143D01*
X125678573Y-64571429D01*
X125607145Y-64714286D01*
X125464288Y-64857143D01*
X112107143Y-69035714D02*
X112607143Y-69035714D01*
X112821429Y-70607143D02*
X112107143Y-70607143D01*
X112107143Y-67607143D01*
X112821429Y-67607143D01*
X113464286Y-67607143D02*
X113464286Y-70035714D01*
X113535714Y-70321429D01*
X113607143Y-70464286D01*
X113750000Y-70607143D01*
X114035714Y-70607143D01*
X114178572Y-70464286D01*
X114250000Y-70321429D01*
X114321429Y-70035714D01*
X114321429Y-67607143D01*
X116035715Y-68607143D02*
X116392858Y-70607143D01*
X116750000Y-68607143D02*
X116392858Y-70607143D01*
X116250000Y-71321429D01*
X116178572Y-71464286D01*
X116035715Y-71607143D01*
X117892857Y-70464286D02*
X117750000Y-70607143D01*
X117464286Y-70607143D01*
X117321429Y-70464286D01*
X117250000Y-70178571D01*
X117250000Y-69035714D01*
X117321429Y-68750000D01*
X117464286Y-68607143D01*
X117750000Y-68607143D01*
X117892857Y-68750000D01*
X117964286Y-69035714D01*
X117964286Y-69321429D01*
X117250000Y-69607143D01*
X119250000Y-70607143D02*
X119250000Y-69035714D01*
X119178571Y-68750000D01*
X119035714Y-68607143D01*
X118750000Y-68607143D01*
X118607143Y-68750000D01*
X119250000Y-70464286D02*
X119107143Y-70607143D01*
X118750000Y-70607143D01*
X118607143Y-70464286D01*
X118535714Y-70178571D01*
X118535714Y-69892857D01*
X118607143Y-69607143D01*
X118750000Y-69464286D01*
X119107143Y-69464286D01*
X119250000Y-69321429D01*
X119964286Y-70607143D02*
X119964286Y-68607143D01*
X119964286Y-69178571D02*
X120035714Y-68892857D01*
X120107143Y-68750000D01*
X120250000Y-68607143D01*
X120392857Y-68607143D01*
X111964286Y-84107143D02*
X112321429Y-87107143D01*
X112607143Y-84964286D01*
X112892857Y-87107143D01*
X113250000Y-84107143D01*
X113821429Y-87107143D02*
X113821429Y-84107143D01*
X113821429Y-85535714D02*
X114678572Y-85535714D01*
X114678572Y-87107143D02*
X114678572Y-84107143D01*
X115678572Y-84107143D02*
X115964286Y-84107143D01*
X116107144Y-84250000D01*
X116250001Y-84535714D01*
X116321429Y-85107143D01*
X116321429Y-86107143D01*
X116250001Y-86678571D01*
X116107144Y-86964286D01*
X115964286Y-87107143D01*
X115678572Y-87107143D01*
X115535715Y-86964286D01*
X115392858Y-86678571D01*
X115321429Y-86107143D01*
X115321429Y-85107143D01*
X115392858Y-84535714D01*
X115535715Y-84250000D01*
X115678572Y-84107143D01*
X117964287Y-85107143D02*
X118321430Y-87107143D01*
X118678572Y-85107143D02*
X118321430Y-87107143D01*
X118178572Y-87821429D01*
X118107144Y-87964286D01*
X117964287Y-88107143D01*
X119821429Y-86964286D02*
X119678572Y-87107143D01*
X119392858Y-87107143D01*
X119250001Y-86964286D01*
X119178572Y-86678571D01*
X119178572Y-85535714D01*
X119250001Y-85250000D01*
X119392858Y-85107143D01*
X119678572Y-85107143D01*
X119821429Y-85250000D01*
X119892858Y-85535714D01*
X119892858Y-85821429D01*
X119178572Y-86107143D01*
X121178572Y-87107143D02*
X121178572Y-85535714D01*
X121107143Y-85250000D01*
X120964286Y-85107143D01*
X120678572Y-85107143D01*
X120535715Y-85250000D01*
X121178572Y-86964286D02*
X121035715Y-87107143D01*
X120678572Y-87107143D01*
X120535715Y-86964286D01*
X120464286Y-86678571D01*
X120464286Y-86392857D01*
X120535715Y-86107143D01*
X120678572Y-85964286D01*
X121035715Y-85964286D01*
X121178572Y-85821429D01*
X121892858Y-87107143D02*
X121892858Y-85107143D01*
X121892858Y-85678571D02*
X121964286Y-85392857D01*
X122035715Y-85250000D01*
X122178572Y-85107143D01*
X122321429Y-85107143D01*
D12*
X120214286Y-101928571D02*
X114214286Y-101928571D01*
X114214286Y-100785714D01*
X114500000Y-100500000D01*
X114785714Y-100357143D01*
X115357143Y-100214286D01*
X116214286Y-100214286D01*
X116785714Y-100357143D01*
X117071429Y-100500000D01*
X117357143Y-100785714D01*
X117357143Y-101928571D01*
X120214286Y-98928571D02*
X114214286Y-98928571D01*
X118500000Y-97928571D01*
X114214286Y-96928571D01*
X120214286Y-96928571D01*
X120214286Y-93928572D02*
X120214286Y-95642857D01*
X120214286Y-94785715D02*
X114214286Y-94785715D01*
X115071429Y-95071429D01*
X115642857Y-95357143D01*
X115928571Y-95642857D01*
X114214286Y-92071429D02*
X114214286Y-91785714D01*
X114500000Y-91500000D01*
X114785714Y-91357143D01*
X115357143Y-91214286D01*
X116500000Y-91071429D01*
X117928571Y-91071429D01*
X119071429Y-91214286D01*
X119642857Y-91357143D01*
X119928571Y-91500000D01*
X120214286Y-91785714D01*
X120214286Y-92071429D01*
X119928571Y-92357143D01*
X119642857Y-92500000D01*
X119071429Y-92642857D01*
X117928571Y-92785714D01*
X116500000Y-92785714D01*
X115357143Y-92642857D01*
X114785714Y-92500000D01*
X114500000Y-92357143D01*
X114214286Y-92071429D01*
D14*
X85000000Y-90000000D03*
D15*
X82460000Y-90000000D03*
D14*
X85000000Y-82500000D03*
D15*
X82460000Y-82500000D03*
D14*
X85000000Y-75000000D03*
D15*
X82460000Y-75000000D03*
D14*
X85000000Y-67500000D03*
D15*
X82460000Y-67500000D03*
D14*
X85000000Y-60000000D03*
D15*
X82460000Y-60000000D03*
D14*
X89960000Y-97500000D03*
D15*
X92500000Y-97500000D03*
D14*
X90000000Y-90000000D03*
D15*
X92540000Y-90000000D03*
D14*
X90000000Y-82500000D03*
D15*
X92540000Y-82500000D03*
D14*
X90000000Y-75000000D03*
D15*
X92540000Y-75000000D03*
D14*
X90000000Y-67500000D03*
D15*
X92540000Y-67500000D03*
D14*
X90000000Y-60000000D03*
D15*
X92540000Y-60000000D03*
D16*
X105310000Y-107500000D03*
D17*
X102770000Y-107500000D03*
X100230000Y-107500000D03*
X97690000Y-107500000D03*
X95150000Y-107500000D03*
X92610000Y-107500000D03*
X90070000Y-107500000D03*
X87530000Y-107500000D03*
X84990000Y-107500000D03*
X82450000Y-107500000D03*
X79910000Y-107500000D03*
X77370000Y-107500000D03*
X74830000Y-107500000D03*
X72290000Y-107500000D03*
X69750000Y-107500000D03*
D16*
X69750000Y-135250000D03*
D17*
X72290000Y-135250000D03*
X74830000Y-135250000D03*
X77370000Y-135250000D03*
X79910000Y-135250000D03*
X82450000Y-135250000D03*
X84990000Y-135250000D03*
X87530000Y-135250000D03*
X90070000Y-135250000D03*
X92610000Y-135250000D03*
X95150000Y-135250000D03*
X97690000Y-135250000D03*
X100230000Y-135250000D03*
X102770000Y-135250000D03*
X105310000Y-135250000D03*
D14*
X85000000Y-97500000D03*
D15*
X82460000Y-97500000D03*
D18*
X53770000Y-55000000D03*
X51230000Y-55000000D03*
D19*
X52500000Y-107500000D03*
D20*
X65200000Y-107500000D03*
D19*
X109800000Y-107500000D03*
D20*
X122500000Y-107500000D03*
D19*
X52500000Y-135000000D03*
D20*
X65200000Y-135000000D03*
D19*
X122500000Y-135250000D03*
D20*
X109800000Y-135250000D03*
M02*
